Patient4_TMGait_0pt3_01_left_19_GRF.mot
version=1
nRows=58
nColumns=19
inDegrees=no
endheader
time	F1x	F1y	F1z	M1x	M1y	M1z	F2x	F2y	F2z	M2x	M2y	M2z	EC1x	EC1y	EC1z	EC2x	EC2y	EC2z
35.47	3.6195	3.8836	-2.922	0.3118	4.0503	4.7244	-11.4859	701.905	-46.1238	232.8583	51.0183	695.7731	-0.0592	0.0182	-0.0073	-0.0462	0.0165	0.9585
35.4892	2.5276	2.745	-1.9478	0.16528	2.7403	3.3421	-11.1522	717.4134	-43.8472	238.2203	49.2137	708.8646	-0.0592	0.0182	-0.0073	-0.0462	0.0165	0.9585
35.5084	1.5852	1.7894	-1.1055	0.030631	1.6027	2.1802	-10.9216	740.1743	-41.7962	246.202	47.5947	728.2282	-0.0592	0.0182	-0.0073	-0.0462	0.0165	0.9585
35.5276	0.85478	1.077	-0.45182	-0.082595	0.71971	1.305	-10.8129	769.9686	-40.1738	256.7023	46.3213	753.6792	-0.0592	0.0182	-0.0073	-0.0462	0.0165	0.9585
35.5469	0.33959	0.60226	0.0086008	-0.17015	0.098654	0.7093	-10.7805	804.8916	-39.1048	269.0049	45.472	783.4668	-0.0592	0.0182	-0.0073	-0.0462	0.0165	0.9585
35.5661	0.0082754	0.31847	0.29951	-0.22892	-0.29595	0.34311	-10.7325	841.467	-38.6284	281.8439	45.0387	814.3733	-0.0592	0.0182	-0.0073	-0.0462	0.0165	0.9585
35.5853	-0.18301	0.15658	0.45914	-0.25387	-0.51658	0.13039	-10.5478	875.217	-38.6912	293.6231	44.9167	842.2524	-0.0592	0.0182	-0.0073	-0.0462	0.0165	0.9585
35.6045	-0.28006	0.033127	0.5264	-0.2361	-0.61622	-0.019439	-10.0885	901.5568	-39.1467	302.74	44.9079	862.8635	-0.0592	0.0182	-0.0073	-0.0462	0.0165	0.9585
35.6237	-0.32436	-0.13831	0.53384	-0.16152	-0.64033	-0.20397	-9.2191	916.7383	-39.7825	307.9151	44.7578	872.7614	-0.0592	0.0182	-0.0073	-0.0462	0.0165	0.9585
35.6429	-0.34406	-0.4422	0.50581	-0.011456	-0.62432	-0.51993	-7.8369	918.6088	-40.3577	308.4489	44.2094	870.0083	-0.0592	0.0182	-0.0073	-0.0462	0.0165	0.9585
35.6621	-0.35535	-0.95153	0.45884	0.23246	-0.59177	-1.0493	-5.8731	906.9979	-40.6488	304.3362	43.0494	854.5261	-0.0592	0.0182	-0.0073	-0.0462	0.0165	0.9585
35.6814	-0.36428	-1.7191	0.39961	0.58387	-0.54868	-1.8491	-3.3037	883.6096	-40.5223	296.2078	41.1769	827.9894	-0.0592	0.0182	-0.0073	-0.0462	0.0165	0.9585
35.7006	-0.36828	-2.7615	0.32529	1.0456	-0.48607	-2.9439	-0.1599	851.6008	-39.9673	285.1723	38.6351	793.4264	-0.0592	0.0182	-0.0073	-0.0462	0.0165	0.9585
35.7198	-0.35476	-4.0341	0.22559	1.5948	-0.385	-4.2904	3.4901	814.9795	-39.0751	272.6105	35.5809	754.647	-0.0592	0.0182	-0.0073	-0.0462	0.0165	0.9585
35.739	-0.30214	-5.385	0.087246	2.1644	-0.2218	-5.7266	7.5495	777.9332	-37.9951	259.9486	32.2324	715.5977	-0.0592	0.0182	-0.0073	-0.0462	0.0165	0.9585
35.7582	-0.17533	-6.5078	-0.10333	2.6239	0.031292	-6.9264	11.8972	744.2294	-36.8953	248.4581	28.8235	679.8058	-0.0592	0.0182	-0.0073	-0.0462	0.0165	0.9585
35.7774	0.07248	-6.8963	-0.35761	2.7636	0.40123	-7.3551	16.3823	716.7604	-35.9348	239.1068	25.5789	649.9658	-0.0592	0.0182	-0.0073	-0.0462	0.0165	0.9585
35.7966	0.49284	-5.804	-0.67431	2.2771	0.90271	-6.2309	20.8056	697.2174	-35.2357	232.4505	22.6928	627.6576	-0.0592	0.0182	-0.0073	-0.0462	0.0165	0.9585
35.8159	1.1339	-2.2312	-1.0238	0.75475	1.5225	-2.506	24.9313	685.8912	-34.873	228.5698	20.3191	613.179	-0.0592	0.0182	-0.0073	-0.0462	0.0165	0.9585
35.8351	2.0241	5.0244	-1.3383	-2.2959	2.2005	5.0855	28.5223	681.6909	-34.8754	227.0785	18.5604	605.5804	-0.0592	0.0182	-0.0073	-0.0462	0.0165	0.9585
35.8543	3.1479	17.23	-1.5073	-7.3893	2.8115	17.883	31.3606	682.3664	-35.219	227.201	17.459	602.8753	-0.0592	0.0182	-0.0073	-0.0462	0.0165	0.9585
35.8735	4.4148	35.4391	-1.3639	-14.95	3.137	37.0093	33.2511	684.8809	-35.8221	227.8992	16.9964	602.3774	-0.0592	0.0182	-0.0073	-0.0462	0.0165	0.9585
35.8927	5.5954	60.0623	-0.68214	-25.1322	2.8368	62.918	34.0351	685.9138	-36.5443	228.0449	17.0939	601.1571	-0.0592	0.0182	-0.0073	-0.0462	0.0165	0.9585
35.9119	6.1682	90.3502	0.7951	-37.6027	1.4207	94.8443	33.6209	682.4388	-37.2005	226.6174	17.6163	596.5476	-0.0592	0.0182	-0.0073	-0.0462	0.0165	0.9585
35.9311	5.5677	124.0964	3.2795	-51.4311	-1.5589	130.4806	32.0751	672.3095	-37.607	222.9025	18.378	586.6298	-0.0592	0.0182	-0.0073	-0.0462	0.0165	0.9585
35.9504	3.8521	158.5666	6.6586	-65.4997	-5.9435	166.8935	29.6936	654.7492	-37.6355	216.6563	19.1672	570.635	-0.0592	0.0182	-0.0073	-0.0462	0.0165	0.9585
35.9696	1.3637	192.2147	10.5435	-79.2003	-11.1675	202.3805	26.9459	630.4916	-37.2355	208.148	19.7802	549.0714	-0.0592	0.0182	-0.0073	-0.0462	0.0165	0.9585
35.9888	-1.6484	225.0601	14.4961	-92.5732	-16.6637	236.9541	24.3054	601.3887	-36.4052	198.0245	20.0533	523.4157	-0.0592	0.0182	-0.0073	-0.0462	0.0165	0.9585
36.008	-4.9646	257.5003	18.11	-105.81	-21.9185	271.0668	22.062	569.6224	-35.1582	187.0416	19.894	495.4712	-0.0592	0.0182	-0.0073	-0.0462	0.0165	0.9585
36.0272	-8.3791	289.4109	21.0563	-118.8726	-26.5038	304.6278	20.2587	537.0494	-33.5471	175.8353	19.3191	466.8115	-0.0592	0.0182	-0.0073	-0.0462	0.0165	0.9585
36.0464	-11.7054	320.1235	23.1582	-131.4754	-30.155	336.9731	18.7789	504.919	-31.7001	164.8272	18.4594	438.515	-0.0592	0.0182	-0.0073	-0.0462	0.0165	0.9585
36.0656	-14.7607	348.7919	24.4367	-143.2364	-32.8153	367.2322	17.4599	473.9058	-29.783	154.2414	17.491	411.1759	-0.0592	0.0182	-0.0073	-0.0462	0.0165	0.9585
36.0849	-17.3854	374.7524	25.0717	-153.8427	-34.6036	394.674	16.176	444.2362	-27.92	144.1538	16.5459	385.0059	-0.0592	0.0182	-0.0073	-0.0462	0.0165	0.9585
36.1041	-19.4475	397.8121	25.3164	-163.1849	-35.7287	419.0011	14.8962	415.8235	-26.1601	134.5391	15.6717	359.9395	-0.0592	0.0182	-0.0073	-0.0462	0.0165	0.9585
36.1233	-20.8477	418.3761	25.4016	-171.4156	-36.3932	440.5066	13.6841	388.4283	-24.4936	125.3236	14.8403	335.7662	-0.0592	0.0182	-0.0073	-0.0462	0.0165	0.9585
36.1425	-21.5349	437.2858	25.5039	-178.8813	-36.761	459.9268	12.6407	361.7468	-22.879	116.4137	13.9873	312.2233	-0.0592	0.0182	-0.0073	-0.0462	0.0165	0.9585
36.1617	-21.508	455.4651	25.7752	-185.9734	-36.9859	478.0903	11.8511	335.4422	-21.2566	107.7051	13.0422	289.0292	-0.0592	0.0182	-0.0073	-0.0462	0.0165	0.9585
36.1809	-20.7857	473.7191	26.3311	-193.0416	-37.1878	495.729	11.3395	309.2146	-19.5674	99.1029	11.9548	265.9419	-0.0592	0.0182	-0.0073	-0.0462	0.0165	0.9585
36.2001	-19.4142	492.6047	27.2284	-200.3373	-37.4358	513.3713	11.0496	282.8654	-17.7818	90.5413	10.7222	242.8126	-0.0592	0.0182	-0.0073	-0.0462	0.0165	0.9585
36.2194	-17.4762	512.3379	28.4586	-207.9736	-37.7488	531.2587	10.8588	256.3211	-15.9138	81.988	9.3969	219.6028	-0.0592	0.0182	-0.0073	-0.0462	0.0165	0.9585
36.2386	-15.0699	532.829	29.9643	-215.934	-38.1036	549.3652	10.6138	229.618	-14.021	73.4386	8.0727	196.3677	-0.0592	0.0182	-0.0073	-0.0462	0.0165	0.9585
36.2578	-12.3129	553.7684	31.6658	-224.1001	-38.4625	567.4648	10.1711	202.8831	-12.1956	64.9131	6.8622	173.2333	-0.0592	0.0182	-0.0073	-0.0462	0.0165	0.9585
36.277	-9.3526	574.7325	33.4928	-232.2928	-38.8071	585.2322	9.4368	176.316	-10.5337	56.453	5.8606	150.3733	-0.0592	0.0182	-0.0073	-0.0462	0.0165	0.9585
36.2962	-6.3653	595.3355	35.394	-240.337	-39.1524	602.3891	8.3797	150.1893	-9.1062	48.1263	5.1254	128.0067	-0.0592	0.0182	-0.0073	-0.0462	0.0165	0.9585
36.3154	-3.548	615.3503	37.3514	-248.1132	-39.5588	618.818	7.0247	124.8686	-7.931	40.0385	4.6572	106.4151	-0.0592	0.0182	-0.0073	-0.0462	0.0165	0.9585
36.3346	-1.1019	634.7166	39.3803	-255.5662	-40.1255	634.5771	5.4483	100.7985	-6.9666	32.329	4.3968	85.9432	-0.0592	0.0182	-0.0073	-0.0462	0.0165	0.9585
36.3539	0.79285	653.4943	41.5172	-262.6899	-40.9692	649.8314	3.7704	78.4519	-6.1264	25.1548	4.238	66.9675	-0.0592	0.0182	-0.0073	-0.0462	0.0165	0.9585
36.3731	1.9853	671.8282	43.8005	-269.5184	-42.1994	664.8025	2.1382	58.3179	-5.3048	18.6829	4.0529	49.8908	-0.0592	0.0182	-0.0073	-0.0462	0.0165	0.9585
36.3923	2.3768	689.9437	46.2341	-276.1358	-43.8721	679.7555	0.71814	40.8691	-4.4166	13.0746	3.725	35.1082	-0.0592	0.0182	-0.0073	-0.0462	0.0165	0.9585
36.4115	1.9659	708.0987	48.7654	-282.6668	-45.9584	694.9508	-0.33279	26.4816	-3.4418	8.4563	3.1936	22.9336	-0.0592	0.0182	-0.0073	-0.0462	0.0165	0.9585
36.4307	0.87383	726.4676	51.3001	-289.2337	-48.3449	710.5432	-0.93361	15.3483	-2.4382	4.89	2.4892	13.5252	-0.0592	0.0182	-0.0073	-0.0462	0.0165	0.9585
36.4499	-0.68395	745.0855	53.7149	-295.9279	-50.8471	726.5179	-1.1419	7.4171	-1.5148	2.357	1.7296	6.8291	-0.0592	0.0182	-0.0073	-0.0462	0.0165	0.9585
36.4691	-2.4197	763.9244	55.8591	-302.8243	-53.2151	742.7495	-1.1044	2.3274	-0.7653	0.73894	1.0457	2.5349	-0.0592	0.0182	-0.0073	-0.0462	0.0165	0.9585
36.4884	-4.0175	782.9227	57.599	-309.9699	-55.1868	759.0364	-0.94338	-0.50317	-0.21586	-0.1533	0.4999	0.14915	-0.0592	0.0182	-0.0073	-0.0462	0.0165	0.9585
36.5076	-5.1973	801.9035	58.8747	-317.33	-56.5692	775.055	-0.7417	-1.7057	0.1456	-0.52319	0.10822	-0.86329	-0.0592	0.0182	-0.0073	-0.0462	0.0165	0.9585
36.5268	-5.7626	820.4992	59.6955	-324.7508	-57.2658	790.3232	-0.54926	-1.8516	0.35168	-0.55454	-0.13928	-0.98747	-0.0592	0.0182	-0.0073	-0.0462	0.0165	0.9585
36.546	-5.6105	838.091	60.1162	-331.9426	-57.2644	804.1841	-0.39143	-1.4085	0.44282	-0.39802	-0.26871	-0.62063	-0.0592	0.0182	-0.0073	-0.0462	0.0165	0.9585
36.5652	-4.7182	853.7063	60.2327	-338.4491	-56.6322	815.717	-0.27629	-0.72913	0.45842	-0.16834	-0.31191	-0.062686	-0.0592	0.0182	-0.0073	-0.0462	0.0165	0.9585
